<mxfile host="app.diagrams.net" agent="Mozilla/5.0 (X11; Linux x86_64; rv:135.0) Gecko/20100101 Firefox/135.0" version="26.0.16">
  <diagram name="Page-1" id="6ft9qWTdmzRTIg32xNin">
    <mxGraphModel dx="926" dy="483" grid="1" gridSize="10" guides="1" tooltips="1" connect="1" arrows="1" fold="1" page="1" pageScale="1" pageWidth="850" pageHeight="1100" math="0" shadow="0">
      <root>
        <mxCell id="0" />
        <mxCell id="1" parent="0" />
        <mxCell id="9wnCIPX5-uWTmCZ-Byyc-7" value="&lt;b&gt;Chat&lt;/b&gt;" style="html=1;dropTarget=0;whiteSpace=wrap;" vertex="1" parent="1">
          <mxGeometry x="410" y="390" width="180" height="90" as="geometry" />
        </mxCell>
        <mxCell id="9wnCIPX5-uWTmCZ-Byyc-8" value="" style="shape=module;jettyWidth=8;jettyHeight=4;" vertex="1" parent="9wnCIPX5-uWTmCZ-Byyc-7">
          <mxGeometry x="1" width="20" height="20" relative="1" as="geometry">
            <mxPoint x="-27" y="7" as="offset" />
          </mxGeometry>
        </mxCell>
        <mxCell id="9wnCIPX5-uWTmCZ-Byyc-9" value="&lt;b&gt;Call&lt;/b&gt;" style="html=1;dropTarget=0;whiteSpace=wrap;" vertex="1" parent="1">
          <mxGeometry x="760" y="160" width="180" height="90" as="geometry" />
        </mxCell>
        <mxCell id="9wnCIPX5-uWTmCZ-Byyc-10" value="" style="shape=module;jettyWidth=8;jettyHeight=4;" vertex="1" parent="9wnCIPX5-uWTmCZ-Byyc-9">
          <mxGeometry x="1" width="20" height="20" relative="1" as="geometry">
            <mxPoint x="-27" y="7" as="offset" />
          </mxGeometry>
        </mxCell>
        <mxCell id="9wnCIPX5-uWTmCZ-Byyc-11" value="&lt;b&gt;User&lt;/b&gt;" style="html=1;dropTarget=0;whiteSpace=wrap;" vertex="1" parent="1">
          <mxGeometry x="410" y="160" width="180" height="90" as="geometry" />
        </mxCell>
        <mxCell id="9wnCIPX5-uWTmCZ-Byyc-12" value="" style="shape=module;jettyWidth=8;jettyHeight=4;" vertex="1" parent="9wnCIPX5-uWTmCZ-Byyc-11">
          <mxGeometry x="1" width="20" height="20" relative="1" as="geometry">
            <mxPoint x="-27" y="7" as="offset" />
          </mxGeometry>
        </mxCell>
        <mxCell id="9wnCIPX5-uWTmCZ-Byyc-13" value="&lt;b&gt;Search&lt;/b&gt;" style="html=1;dropTarget=0;whiteSpace=wrap;" vertex="1" parent="1">
          <mxGeometry x="760" y="390" width="180" height="90" as="geometry" />
        </mxCell>
        <mxCell id="9wnCIPX5-uWTmCZ-Byyc-14" value="" style="shape=module;jettyWidth=8;jettyHeight=4;" vertex="1" parent="9wnCIPX5-uWTmCZ-Byyc-13">
          <mxGeometry x="1" width="20" height="20" relative="1" as="geometry">
            <mxPoint x="-27" y="7" as="offset" />
          </mxGeometry>
        </mxCell>
        <mxCell id="9wnCIPX5-uWTmCZ-Byyc-15" value="&lt;b&gt;Notification&lt;/b&gt;" style="html=1;dropTarget=0;whiteSpace=wrap;" vertex="1" parent="1">
          <mxGeometry x="410" y="610" width="180" height="90" as="geometry" />
        </mxCell>
        <mxCell id="9wnCIPX5-uWTmCZ-Byyc-16" value="" style="shape=module;jettyWidth=8;jettyHeight=4;" vertex="1" parent="9wnCIPX5-uWTmCZ-Byyc-15">
          <mxGeometry x="1" width="20" height="20" relative="1" as="geometry">
            <mxPoint x="-27" y="7" as="offset" />
          </mxGeometry>
        </mxCell>
        <mxCell id="9wnCIPX5-uWTmCZ-Byyc-17" value="&lt;b&gt;Media&lt;/b&gt;" style="html=1;dropTarget=0;whiteSpace=wrap;" vertex="1" parent="1">
          <mxGeometry x="760" y="610" width="180" height="90" as="geometry" />
        </mxCell>
        <mxCell id="9wnCIPX5-uWTmCZ-Byyc-18" value="" style="shape=module;jettyWidth=8;jettyHeight=4;" vertex="1" parent="9wnCIPX5-uWTmCZ-Byyc-17">
          <mxGeometry x="1" width="20" height="20" relative="1" as="geometry">
            <mxPoint x="-27" y="7" as="offset" />
          </mxGeometry>
        </mxCell>
        <mxCell id="9wnCIPX5-uWTmCZ-Byyc-22" value="" style="rounded=0;orthogonalLoop=1;jettySize=auto;html=1;endArrow=halfCircle;endFill=0;endSize=6;strokeWidth=1;sketch=0;fontSize=12;curved=1;exitX=1;exitY=0.5;exitDx=0;exitDy=0;" edge="1" parent="1">
          <mxGeometry relative="1" as="geometry">
            <mxPoint x="210" y="180" as="sourcePoint" />
            <mxPoint x="260" y="180" as="targetPoint" />
          </mxGeometry>
        </mxCell>
        <mxCell id="9wnCIPX5-uWTmCZ-Byyc-26" value="Subject" style="edgeLabel;html=1;align=center;verticalAlign=middle;resizable=0;points=[];" vertex="1" connectable="0" parent="9wnCIPX5-uWTmCZ-Byyc-22">
          <mxGeometry x="0.6593" y="2" relative="1" as="geometry">
            <mxPoint x="-1" y="-23" as="offset" />
          </mxGeometry>
        </mxCell>
        <mxCell id="9wnCIPX5-uWTmCZ-Byyc-23" value="" style="ellipse;whiteSpace=wrap;html=1;align=center;aspect=fixed;fillColor=none;strokeColor=none;resizable=0;perimeter=centerPerimeter;rotatable=0;allowArrows=0;points=[];outlineConnect=1;" vertex="1" parent="1">
          <mxGeometry x="250" y="170" width="10" height="10" as="geometry" />
        </mxCell>
        <mxCell id="9wnCIPX5-uWTmCZ-Byyc-24" value="&lt;b&gt;Authentication&lt;/b&gt;" style="html=1;dropTarget=0;whiteSpace=wrap;" vertex="1" parent="1">
          <mxGeometry x="30" y="160" width="180" height="90" as="geometry" />
        </mxCell>
        <mxCell id="9wnCIPX5-uWTmCZ-Byyc-25" value="" style="shape=module;jettyWidth=8;jettyHeight=4;" vertex="1" parent="9wnCIPX5-uWTmCZ-Byyc-24">
          <mxGeometry x="1" width="20" height="20" relative="1" as="geometry">
            <mxPoint x="-27" y="7" as="offset" />
          </mxGeometry>
        </mxCell>
        <mxCell id="9wnCIPX5-uWTmCZ-Byyc-27" value="" style="rounded=0;orthogonalLoop=1;jettySize=auto;html=1;endArrow=circle;endFill=0;endSize=6;strokeWidth=1;sketch=0;fontSize=12;curved=1;exitX=0;exitY=0.5;exitDx=0;exitDy=0;" edge="1" parent="1">
          <mxGeometry relative="1" as="geometry">
            <mxPoint x="409.9999999999998" y="180" as="sourcePoint" />
            <mxPoint x="360" y="180" as="targetPoint" />
          </mxGeometry>
        </mxCell>
        <mxCell id="9wnCIPX5-uWTmCZ-Byyc-31" value="User" style="edgeLabel;html=1;align=center;verticalAlign=middle;resizable=0;points=[];" vertex="1" connectable="0" parent="9wnCIPX5-uWTmCZ-Byyc-27">
          <mxGeometry x="0.7703" y="1" relative="1" as="geometry">
            <mxPoint y="-26" as="offset" />
          </mxGeometry>
        </mxCell>
        <mxCell id="9wnCIPX5-uWTmCZ-Byyc-33" value="" style="ellipse;whiteSpace=wrap;html=1;align=center;aspect=fixed;fillColor=none;strokeColor=none;resizable=0;perimeter=centerPerimeter;rotatable=0;allowArrows=0;points=[];outlineConnect=1;" vertex="1" parent="1">
          <mxGeometry x="200" y="250" width="10" height="10" as="geometry" />
        </mxCell>
        <mxCell id="9wnCIPX5-uWTmCZ-Byyc-38" value="" style="rounded=0;orthogonalLoop=1;jettySize=auto;html=1;endArrow=halfCircle;endFill=0;endSize=6;strokeWidth=1;sketch=0;fontSize=12;curved=1;exitX=1;exitY=0.5;exitDx=0;exitDy=0;" edge="1" parent="1">
          <mxGeometry relative="1" as="geometry">
            <mxPoint x="210" y="230" as="sourcePoint" />
            <mxPoint x="260" y="230" as="targetPoint" />
          </mxGeometry>
        </mxCell>
        <mxCell id="9wnCIPX5-uWTmCZ-Byyc-39" value="Certificate" style="edgeLabel;html=1;align=center;verticalAlign=middle;resizable=0;points=[];" vertex="1" connectable="0" parent="9wnCIPX5-uWTmCZ-Byyc-38">
          <mxGeometry x="0.6593" y="2" relative="1" as="geometry">
            <mxPoint x="-1" y="-23" as="offset" />
          </mxGeometry>
        </mxCell>
        <mxCell id="9wnCIPX5-uWTmCZ-Byyc-40" value="" style="rounded=0;orthogonalLoop=1;jettySize=auto;html=1;endArrow=circle;endFill=0;endSize=6;strokeWidth=1;sketch=0;fontSize=12;curved=1;exitX=0;exitY=0.5;exitDx=0;exitDy=0;" edge="1" parent="1">
          <mxGeometry relative="1" as="geometry">
            <mxPoint x="409.9999999999998" y="230" as="sourcePoint" />
            <mxPoint x="360" y="230" as="targetPoint" />
          </mxGeometry>
        </mxCell>
        <mxCell id="9wnCIPX5-uWTmCZ-Byyc-41" value="Password" style="edgeLabel;html=1;align=center;verticalAlign=middle;resizable=0;points=[];" vertex="1" connectable="0" parent="9wnCIPX5-uWTmCZ-Byyc-40">
          <mxGeometry x="0.7703" y="1" relative="1" as="geometry">
            <mxPoint y="-26" as="offset" />
          </mxGeometry>
        </mxCell>
        <mxCell id="9wnCIPX5-uWTmCZ-Byyc-46" value="" style="rounded=0;orthogonalLoop=1;jettySize=auto;html=1;endArrow=halfCircle;endFill=0;endSize=6;strokeWidth=1;sketch=0;fontSize=12;curved=1;" edge="1" parent="1">
          <mxGeometry relative="1" as="geometry">
            <mxPoint x="760" y="204.70999999999998" as="sourcePoint" />
            <mxPoint x="710" y="204.70999999999998" as="targetPoint" />
          </mxGeometry>
        </mxCell>
        <mxCell id="9wnCIPX5-uWTmCZ-Byyc-47" value="User" style="edgeLabel;html=1;align=center;verticalAlign=middle;resizable=0;points=[];" vertex="1" connectable="0" parent="9wnCIPX5-uWTmCZ-Byyc-46">
          <mxGeometry x="0.6593" y="2" relative="1" as="geometry">
            <mxPoint x="-1" y="-23" as="offset" />
          </mxGeometry>
        </mxCell>
        <mxCell id="9wnCIPX5-uWTmCZ-Byyc-52" value="" style="rounded=0;orthogonalLoop=1;jettySize=auto;html=1;endArrow=halfCircle;endFill=0;endSize=6;strokeWidth=1;sketch=0;fontSize=12;curved=1;exitX=0.5;exitY=0;exitDx=0;exitDy=0;" edge="1" parent="1" source="9wnCIPX5-uWTmCZ-Byyc-7">
          <mxGeometry relative="1" as="geometry">
            <mxPoint x="680" y="434.71" as="sourcePoint" />
            <mxPoint x="500" y="340" as="targetPoint" />
          </mxGeometry>
        </mxCell>
        <mxCell id="9wnCIPX5-uWTmCZ-Byyc-53" value="User" style="edgeLabel;html=1;align=center;verticalAlign=middle;resizable=0;points=[];" vertex="1" connectable="0" parent="9wnCIPX5-uWTmCZ-Byyc-52">
          <mxGeometry x="0.6593" y="2" relative="1" as="geometry">
            <mxPoint x="-1" y="17" as="offset" />
          </mxGeometry>
        </mxCell>
        <mxCell id="9wnCIPX5-uWTmCZ-Byyc-54" value="" style="endArrow=open;endSize=12;dashed=1;html=1;rounded=0;" edge="1" parent="1">
          <mxGeometry width="160" relative="1" as="geometry">
            <mxPoint x="260" y="230" as="sourcePoint" />
            <mxPoint x="360" y="230" as="targetPoint" />
          </mxGeometry>
        </mxCell>
        <mxCell id="9wnCIPX5-uWTmCZ-Byyc-56" value="" style="endArrow=open;endSize=12;dashed=1;html=1;rounded=0;" edge="1" parent="1">
          <mxGeometry width="160" relative="1" as="geometry">
            <mxPoint x="260" y="180" as="sourcePoint" />
            <mxPoint x="360" y="180" as="targetPoint" />
          </mxGeometry>
        </mxCell>
        <mxCell id="9wnCIPX5-uWTmCZ-Byyc-57" value="" style="rounded=0;orthogonalLoop=1;jettySize=auto;html=1;endArrow=circle;endFill=0;endSize=6;strokeWidth=1;sketch=0;fontSize=12;curved=1;exitX=1;exitY=0.5;exitDx=0;exitDy=0;" edge="1" parent="1">
          <mxGeometry relative="1" as="geometry">
            <mxPoint x="590" y="205" as="sourcePoint" />
            <mxPoint x="640" y="205" as="targetPoint" />
          </mxGeometry>
        </mxCell>
        <mxCell id="9wnCIPX5-uWTmCZ-Byyc-58" value="User" style="edgeLabel;html=1;align=center;verticalAlign=middle;resizable=0;points=[];" vertex="1" connectable="0" parent="9wnCIPX5-uWTmCZ-Byyc-57">
          <mxGeometry x="0.7703" y="1" relative="1" as="geometry">
            <mxPoint y="-26" as="offset" />
          </mxGeometry>
        </mxCell>
        <mxCell id="9wnCIPX5-uWTmCZ-Byyc-59" value="" style="rounded=0;orthogonalLoop=1;jettySize=auto;html=1;endArrow=circle;endFill=0;endSize=6;strokeWidth=1;sketch=0;fontSize=12;curved=1;exitX=0.5;exitY=1;exitDx=0;exitDy=0;" edge="1" parent="1">
          <mxGeometry relative="1" as="geometry">
            <mxPoint x="500" y="250" as="sourcePoint" />
            <mxPoint x="500" y="290" as="targetPoint" />
          </mxGeometry>
        </mxCell>
        <mxCell id="9wnCIPX5-uWTmCZ-Byyc-60" value="User" style="edgeLabel;html=1;align=center;verticalAlign=middle;resizable=0;points=[];" vertex="1" connectable="0" parent="9wnCIPX5-uWTmCZ-Byyc-59">
          <mxGeometry x="0.7703" y="1" relative="1" as="geometry">
            <mxPoint y="-26" as="offset" />
          </mxGeometry>
        </mxCell>
        <mxCell id="9wnCIPX5-uWTmCZ-Byyc-61" value="" style="endArrow=open;endSize=12;dashed=1;html=1;rounded=0;" edge="1" parent="1">
          <mxGeometry width="160" relative="1" as="geometry">
            <mxPoint x="710" y="205" as="sourcePoint" />
            <mxPoint x="640" y="205" as="targetPoint" />
          </mxGeometry>
        </mxCell>
        <mxCell id="9wnCIPX5-uWTmCZ-Byyc-62" value="" style="endArrow=open;endSize=12;dashed=1;html=1;rounded=0;" edge="1" parent="1">
          <mxGeometry width="160" relative="1" as="geometry">
            <mxPoint x="500" y="340" as="sourcePoint" />
            <mxPoint x="500" y="290" as="targetPoint" />
          </mxGeometry>
        </mxCell>
        <mxCell id="9wnCIPX5-uWTmCZ-Byyc-65" value="" style="rounded=0;orthogonalLoop=1;jettySize=auto;html=1;endArrow=halfCircle;endFill=0;endSize=6;strokeWidth=1;sketch=0;fontSize=12;curved=1;exitX=0.556;exitY=0;exitDx=0;exitDy=0;exitPerimeter=0;" edge="1" parent="1">
          <mxGeometry relative="1" as="geometry">
            <mxPoint x="500.0799999999999" y="610" as="sourcePoint" />
            <mxPoint x="500" y="570" as="targetPoint" />
          </mxGeometry>
        </mxCell>
        <mxCell id="9wnCIPX5-uWTmCZ-Byyc-66" value="NotificationObject" style="edgeLabel;html=1;align=center;verticalAlign=middle;resizable=0;points=[];" vertex="1" connectable="0" parent="9wnCIPX5-uWTmCZ-Byyc-65">
          <mxGeometry x="0.6593" y="2" relative="1" as="geometry">
            <mxPoint x="-1" y="17" as="offset" />
          </mxGeometry>
        </mxCell>
        <mxCell id="9wnCIPX5-uWTmCZ-Byyc-69" value="" style="rounded=0;orthogonalLoop=1;jettySize=auto;html=1;endArrow=circle;endFill=0;endSize=6;strokeWidth=1;sketch=0;fontSize=12;curved=1;exitX=0.5;exitY=1;exitDx=0;exitDy=0;" edge="1" parent="1">
          <mxGeometry relative="1" as="geometry">
            <mxPoint x="499.68" y="480" as="sourcePoint" />
            <mxPoint x="499.68" y="520" as="targetPoint" />
          </mxGeometry>
        </mxCell>
        <mxCell id="9wnCIPX5-uWTmCZ-Byyc-70" value="Mention" style="edgeLabel;html=1;align=center;verticalAlign=middle;resizable=0;points=[];" vertex="1" connectable="0" parent="9wnCIPX5-uWTmCZ-Byyc-69">
          <mxGeometry x="0.7703" y="1" relative="1" as="geometry">
            <mxPoint y="-24" as="offset" />
          </mxGeometry>
        </mxCell>
        <mxCell id="9wnCIPX5-uWTmCZ-Byyc-74" value="" style="endArrow=open;endSize=12;dashed=1;html=1;rounded=0;" edge="1" parent="1">
          <mxGeometry width="160" relative="1" as="geometry">
            <mxPoint x="500" y="570" as="sourcePoint" />
            <mxPoint x="500" y="520" as="targetPoint" />
          </mxGeometry>
        </mxCell>
        <mxCell id="9wnCIPX5-uWTmCZ-Byyc-82" value="" style="rounded=0;orthogonalLoop=1;jettySize=auto;html=1;endArrow=halfCircle;endFill=0;endSize=6;strokeWidth=1;sketch=0;fontSize=12;curved=1;" edge="1" parent="1">
          <mxGeometry relative="1" as="geometry">
            <mxPoint x="760" y="434.71" as="sourcePoint" />
            <mxPoint x="710" y="434.71" as="targetPoint" />
          </mxGeometry>
        </mxCell>
        <mxCell id="9wnCIPX5-uWTmCZ-Byyc-83" value="SearchObject" style="edgeLabel;html=1;align=center;verticalAlign=middle;resizable=0;points=[];" vertex="1" connectable="0" parent="9wnCIPX5-uWTmCZ-Byyc-82">
          <mxGeometry x="0.6593" y="2" relative="1" as="geometry">
            <mxPoint x="-1" y="-23" as="offset" />
          </mxGeometry>
        </mxCell>
        <mxCell id="9wnCIPX5-uWTmCZ-Byyc-84" value="" style="endArrow=open;endSize=12;dashed=1;html=1;rounded=0;" edge="1" parent="1">
          <mxGeometry width="160" relative="1" as="geometry">
            <mxPoint x="710" y="434.7100000000001" as="sourcePoint" />
            <mxPoint x="640" y="434.7100000000001" as="targetPoint" />
          </mxGeometry>
        </mxCell>
        <mxCell id="9wnCIPX5-uWTmCZ-Byyc-88" value="" style="rounded=0;orthogonalLoop=1;jettySize=auto;html=1;endArrow=circle;endFill=0;endSize=6;strokeWidth=1;sketch=0;fontSize=12;curved=1;exitX=1;exitY=0.5;exitDx=0;exitDy=0;" edge="1" parent="1">
          <mxGeometry relative="1" as="geometry">
            <mxPoint x="590" y="434.71" as="sourcePoint" />
            <mxPoint x="640" y="434.71" as="targetPoint" />
          </mxGeometry>
        </mxCell>
        <mxCell id="9wnCIPX5-uWTmCZ-Byyc-89" value="MessageAttributes" style="edgeLabel;html=1;align=center;verticalAlign=middle;resizable=0;points=[];fontSize=9;" vertex="1" connectable="0" parent="9wnCIPX5-uWTmCZ-Byyc-88">
          <mxGeometry x="0.7703" y="1" relative="1" as="geometry">
            <mxPoint x="-4" y="-19" as="offset" />
          </mxGeometry>
        </mxCell>
        <mxCell id="9wnCIPX5-uWTmCZ-Byyc-90" value="" style="rounded=0;orthogonalLoop=1;jettySize=auto;html=1;endArrow=circle;endFill=0;endSize=6;strokeWidth=1;sketch=0;fontSize=12;curved=1;" edge="1" parent="1">
          <mxGeometry relative="1" as="geometry">
            <mxPoint x="850" y="610" as="sourcePoint" />
            <mxPoint x="850" y="570" as="targetPoint" />
          </mxGeometry>
        </mxCell>
        <mxCell id="9wnCIPX5-uWTmCZ-Byyc-91" value="FileAttributes" style="edgeLabel;html=1;align=center;verticalAlign=middle;resizable=0;points=[];" vertex="1" connectable="0" parent="9wnCIPX5-uWTmCZ-Byyc-90">
          <mxGeometry x="0.6593" y="2" relative="1" as="geometry">
            <mxPoint x="-1" y="17" as="offset" />
          </mxGeometry>
        </mxCell>
        <mxCell id="9wnCIPX5-uWTmCZ-Byyc-92" value="" style="rounded=0;orthogonalLoop=1;jettySize=auto;html=1;endArrow=halfCircle;endFill=0;endSize=6;strokeWidth=1;sketch=0;fontSize=12;curved=1;exitX=0.5;exitY=1;exitDx=0;exitDy=0;" edge="1" parent="1">
          <mxGeometry relative="1" as="geometry">
            <mxPoint x="850" y="480" as="sourcePoint" />
            <mxPoint x="850" y="520" as="targetPoint" />
          </mxGeometry>
        </mxCell>
        <mxCell id="9wnCIPX5-uWTmCZ-Byyc-93" value="SearchObject" style="edgeLabel;html=1;align=center;verticalAlign=middle;resizable=0;points=[];" vertex="1" connectable="0" parent="9wnCIPX5-uWTmCZ-Byyc-92">
          <mxGeometry x="0.7703" y="1" relative="1" as="geometry">
            <mxPoint y="-26" as="offset" />
          </mxGeometry>
        </mxCell>
        <mxCell id="9wnCIPX5-uWTmCZ-Byyc-94" value="" style="endArrow=open;endSize=12;dashed=1;html=1;rounded=0;" edge="1" parent="1">
          <mxGeometry width="160" relative="1" as="geometry">
            <mxPoint x="850" y="570" as="sourcePoint" />
            <mxPoint x="850" y="520" as="targetPoint" />
          </mxGeometry>
        </mxCell>
      </root>
    </mxGraphModel>
  </diagram>
</mxfile>
